<?xml version="1.0" encoding="utf-8"?>
<svg xmlns="http://www.w3.org/2000/svg"
	xmlns:xlink="http://www.w3.org/1999/xlink"
	width="33px" height="26px" viewBox="0 0 33 26">
<path fillRule="evenodd" d="M 31 26C 31 26 2 26 2 26 0.9 26 0 25.1 0 24 0 24 0 2 0 2 0 0.9 0.9 0 2 0 2 0 31 0 31 0 32.1 0 33 0.9 33 2 33 2 33 24 33 24 33 25.1 32.1 26 31 26ZM 30 3C 30 3 3 3 3 3 3 3 3 23 3 23 3 23 30 23 30 23 30 23 30 3 30 3ZM 8.04 15.64C 8.04 15.64 11 12.68 11 12.68 11 12.68 11 6 11 6 11 5.45 11.45 5 12 5 12 5 27 5 27 5 27.55 5 28 5.45 28 6 28 6 28 14 28 14 28 14.55 27.55 15 27 15 27 15 12.92 15 12.92 15 12.92 15 10.16 17.77 10.16 17.77 10.16 17.77 12.97 21.02 12.97 21.02 12.97 21.02 8.45 20.88 6.15 20.88 5.64 20.88 4.97 20.27 4.97 19.54 4.97 17.21 5.02 12.82 5.02 12.82 5.02 12.82 8.04 15.64 8.04 15.64Z" fill="rgb(255,255,255)" opacity="0.70"/></svg>