<?xml version="1.0" encoding="utf-8"?>
<svg xmlns="http://www.w3.org/2000/svg"
	xmlns:xlink="http://www.w3.org/1999/xlink"
	width="34px" height="26px" viewBox="0 0 34 26">
<path fillRule="evenodd" d="M 30.19 12.07C 30.21 12.38 30.23 12.69 30.23 13 30.23 20.18 24.32 26 17.03 26 13.75 26 10.77 24.81 8.46 22.86 8.08 22.6 7.81 22.18 7.81 21.69 7.81 20.9 8.46 20.37 9.27 20.37 9.74 20.37 10.14 20.49 10.41 20.84 12.21 22.32 14.51 23.22 17.03 23.22 22.76 23.22 27.41 18.65 27.41 13 27.41 12.69 27.39 12.38 27.36 12.07 27.36 12.07 23.63 12.07 23.63 12.07 23.63 12.07 26.63 8.81 28.08 7.38 28.52 6.95 28.86 6.62 29.57 7.31 31.08 8.8 34 12.07 34 12.07 34 12.07 30.19 12.07 30.19 12.07ZM 24.56 5.51C 24.04 5.51 23.62 5.18 23.48 5.02 21.71 3.63 19.47 2.79 17.03 2.79 11.31 2.79 6.66 7.36 6.66 13 6.66 13.32 6.68 13.62 6.71 13.93 6.71 13.93 10.37 13.93 10.37 13.93 10.37 13.93 7.55 17.09 6.02 18.6 5.67 18.94 4.78 19.02 4.29 18.54 2.74 17.01 0 13.93 0 13.93 0 13.93 3.89 13.93 3.89 13.93 3.87 13.62 3.83 13.32 3.83 13 3.83 5.82 9.74 0 17.03 0 20.08 0 22.86 1.04 25.09 2.75 25.57 2.93 26.02 3.52 26.02 4.08 26.02 4.87 25.36 5.51 24.56 5.51Z" fill="rgb(255,255,255)" opacity="0.70"/></svg>