<?xml version="1.0" encoding="utf-8"?>
<svg xmlns="http://www.w3.org/2000/svg"
	xmlns:xlink="http://www.w3.org/1999/xlink"
	width="42px" height="26px" viewBox="0 0 42 26">
<path fillRule="evenodd" d="M 38 26C 38 26 38 0 38 0 38 0 42 0 42 0 42 0 42 26 42 26 42 26 38 26 38 26ZM 8 0C 8 0 34 0 34 0 34 0 34 26 34 26 34 26 8 26 8 26 8 26 8 0 8 0ZM 12 22C 12 22 30 22 30 22 30 22 30 4 30 4 30 4 12 4 12 4 12 4 12 22 12 22ZM 0 0C 0 0 4 0 4 0 4 0 4 26 4 26 4 26 0 26 0 26 0 26 0 0 0 0Z" fill="rgb(255,255,255)" opacity="0.70"/></svg>