<?xml version="1.0" encoding="utf-8"?>
<svg xmlns="http://www.w3.org/2000/svg"
	xmlns:xlink="http://www.w3.org/1999/xlink"
	width="24px" height="24px" viewBox="0 0 24 24">
<path fillRule="evenodd" d="M 12 24C 5.37 24 0 18.63 0 12 0 5.37 5.37 0 12 0 18.63 0 24 5.37 24 12 24 18.63 18.63 24 12 24ZM 16.07 9.67C 16.07 9.67 16 9.74 16 9.74 16 9.74 10.34 4.08 10.34 4.08 10.34 4.08 8.08 6.34 8.08 6.34 8.08 6.34 13.74 12 13.74 12 13.74 12 8.08 17.66 8.08 17.66 8.08 17.66 10.34 19.92 10.34 19.92 10.34 19.92 16 14.26 16 14.26 16 14.26 16.07 14.33 16.07 14.33 16.07 14.33 18.33 12.07 18.33 12.07 18.33 12.07 18.26 12 18.26 12 18.26 12 18.33 11.93 18.33 11.93 18.33 11.93 16.07 9.67 16.07 9.67Z" fill="rgb(255,255,255)" opacity="0.70"/></svg>