<?xml version="1.0" encoding="utf-8"?>
<svg xmlns="http://www.w3.org/2000/svg"
	xmlns:xlink="http://www.w3.org/1999/xlink"
	width="36px" height="26px" viewBox="0 0 36 26">
<path fillRule="evenodd" d="M 30 11C 30 11 30 7 30 7 30 7 24.12 7 24.12 7 24.12 7 19.69 11.43 19.69 11.43 19.69 11.43 19.66 11.38 19.66 11.38 19.66 11.38 15.66 15.38 15.66 15.38 15.66 15.38 15.69 15.43 15.69 15.43 15.69 15.43 9.35 21.77 9.35 21.77 8.93 22.19 8 22 8 22 8 22 2.64 22 2.64 22 2.59 22.01 2.54 22.03 2.48 22.03 2.43 22.03 2.38 22.01 2.33 22 2.33 22 2 22 2 22 2 22 2 21.93 2 21.93 1.4 21.73 0.97 21.18 0.97 20.52 0.97 19.85 1.4 19.3 2 19.1 2 19.1 2 19 2 19 2 19 7.83 19 7.83 19 7.83 19 13.85 12.99 13.85 12.99 13.85 12.99 13.83 12.98 13.83 12.98 13.83 12.98 15.98 10.84 15.98 10.84 15.98 10.84 15.99 10.85 15.99 10.85 15.99 10.85 22.63 4.21 22.63 4.21 23 3.83 24 4 24 4 24 4 30 4 30 4 30 4 30 0.02 30 0.02 30 0.02 33.41 3 35.03 4.63 35.4 4.99 35.48 5.94 34.96 6.46 33.32 8.1 30 11 30 11ZM 7.86 7C 7.86 7 2.68 7 2.68 7 2.62 7.01 2.56 7.04 2.49 7.04 2.42 7.04 2.36 7.01 2.29 7 2.29 7 2 7 2 7 2 7 2 6.94 2 6.94 1.4 6.74 0.97 6.19 0.97 5.52 0.97 4.85 1.4 4.3 2 4.1 2 4.1 2 4 2 4 2 4 8 4 8 4 8 4 8.93 3.79 9.35 4.21 9.35 4.21 14.13 8.99 14.13 8.99 14.13 8.99 11.99 11.13 11.99 11.13 11.99 11.13 7.86 7 7.86 7ZM 24.14 19C 24.14 19 30 19 30 19 30 19 30 15.02 30 15.02 30 15.02 33.41 18 35.03 19.63 35.4 19.99 35.48 20.94 34.96 21.46 33.32 23.1 30 26 30 26 30 26 30 22 30 22 30 22 24 22 24 22 24 22 23.04 22.18 22.63 21.77 22.63 21.77 18.22 17.36 18.22 17.36 18.22 17.36 20.14 15 20.14 15 20.14 15 24.14 19 24.14 19Z" fill="rgb(255,255,255)" opacity="0.70"/></svg>